<?xml version="1.0" encoding="UTF-8"?>
<svg xmlns="http://www.w3.org/2000/svg" xmlns:xlink="http://www.w3.org/1999/xlink" width="160px" height="160px" viewBox="0 0 160 160" version="1.1">
<g id="surface1">
<path style=" stroke:none;fill-rule:evenodd;fill:rgb(22.745098%,28.235294%,29.411765%);fill-opacity:1;" d="M 13.621094 41.144531 C 13.621094 41.144531 -8 75.558594 3.257812 117.148438 C 4.480469 116.417969 5.898438 115.78125 7.179688 115.050781 C 3.675781 93.046875 8.070312 62.34375 21.007812 46.300781 C 18.574219 44.554688 16.125 42.886719 13.621094 41.144531 Z M 13.621094 41.144531 "/>
<path style=" stroke:none;fill-rule:evenodd;fill:rgb(22.745098%,28.235294%,29.411765%);fill-opacity:1;" d="M 146.292969 41.144531 C 146.292969 41.144531 168.019531 75.558594 156.796875 117.148438 C 155.519531 116.4375 154.152344 115.78125 152.875 115.050781 C 156.464844 93.046875 151.980469 62.34375 139.042969 46.300781 C 141.476562 44.554688 143.929688 42.886719 146.363281 41.144531 Z M 146.292969 41.144531 "/>
<path style=" stroke:none;fill-rule:evenodd;fill:rgb(7.058824%,45.098039%,72.941176%);fill-opacity:1;" d="M 136.835938 50.441406 C 140.09375 54.867188 151.351562 43.113281 148.636719 38.972656 C 117.648438 -12.648438 42.367188 -12.574219 11.378906 38.972656 C 8.667969 43.113281 19.921875 54.867188 23.179688 50.441406 C 54.691406 10.800781 106.515625 10.726562 136.835938 50.441406 Z M 136.835938 50.441406 "/>
<path style=" stroke:none;fill-rule:evenodd;fill:rgb(4.313725%,37.254902%,58.039216%);fill-opacity:1;" d="M 136.835938 50.441406 C 137.78125 51.753906 139.410156 51.679688 141.179688 50.796875 C 141.125 50.488281 141.003906 50.191406 140.828125 49.9375 C 113.378906 4.203125 46.640625 4.257812 19.1875 49.9375 C 19.011719 50.191406 18.894531 50.488281 18.839844 50.796875 C 20.589844 51.679688 22.234375 51.753906 23.179688 50.441406 C 54.691406 10.800781 106.515625 10.726562 136.835938 50.441406 Z M 136.835938 50.441406 "/>
<path style=" stroke:none;fill-rule:evenodd;fill:rgb(7.058824%,45.098039%,72.941176%);fill-opacity:1;" d="M 32.492188 88.304688 C 34.246094 99.042969 36.152344 109.78125 37.992188 120.449219 C 39.828125 131.113281 41.71875 141.945312 43.539062 152.6875 C 45.027344 161.101562 23.738281 162.265625 22.320312 154.222656 L 17.210938 124.628906 C 15.460938 114.75 13.832031 104.816406 12.132812 94.9375 C 10.714844 86.953125 30.988281 79.832031 32.492188 88.304688 Z M 32.492188 88.304688 "/>
<path style=" stroke:none;fill-rule:evenodd;fill:rgb(7.058824%,45.098039%,72.941176%);fill-opacity:1;" d="M 127.542969 88.304688 C 125.789062 99.042969 123.882812 109.78125 122.042969 120.449219 C 120.207031 131.113281 118.28125 141.984375 116.527344 152.722656 C 115.042969 161.140625 136.328125 162.300781 137.75 154.261719 L 142.789062 124.628906 C 144.539062 114.75 146.167969 104.816406 147.867188 94.9375 C 149.285156 86.953125 129.011719 79.832031 127.523438 88.339844 Z M 127.542969 88.304688 "/>
<path style=" stroke:none;fill-rule:evenodd;fill:rgb(4.313725%,37.254902%,58.039216%);fill-opacity:1;" d="M 32.492188 88.304688 C 34.246094 99.042969 36.152344 109.78125 37.992188 120.449219 C 39.828125 131.113281 41.71875 141.945312 43.539062 152.6875 C 44.222656 156.433594 40.039062 158.925781 35.277344 159.507812 C 37.027344 155.964844 32.019531 157.183594 31.601562 156.246094 C 29.851562 152.5 35.539062 151.972656 36.363281 150.625 C 38.464844 147.214844 32.355469 144.234375 30.253906 142.640625 C 24.683594 138.574219 28.34375 134.074219 31.601562 129.855469 C 34.121094 126.59375 32.089844 122.679688 29.378906 120.277344 C 21.429688 113.230469 28.695312 108.507812 28.695312 106.484375 C 28.695312 99.304688 18.785156 102.566406 19.75 98.199219 C 20.765625 93.269531 26.050781 93.34375 27.398438 88.828125 C 28.484375 85.078125 19.46875 86.953125 17.507812 86.953125 C 23.265625 83.617188 31.511719 82.886719 32.421875 88.191406 Z M 32.492188 88.304688 "/>
<path style=" stroke:none;fill-rule:evenodd;fill:rgb(4.313725%,37.254902%,58.039216%);fill-opacity:1;" d="M 127.542969 88.304688 C 125.789062 99.042969 123.882812 109.78125 122.042969 120.449219 C 120.207031 131.113281 118.28125 141.984375 116.527344 152.722656 C 115.847656 156.472656 120.03125 158.964844 124.792969 159.546875 C 123.042969 156.003906 128.050781 157.222656 128.46875 156.285156 C 130.21875 152.535156 124.53125 152.011719 123.707031 150.660156 C 121.605469 147.25 127.714844 144.269531 129.816406 142.675781 C 135.382812 138.609375 131.726562 134.113281 128.46875 129.894531 C 125.949219 126.632812 127.980469 122.714844 130.691406 120.316406 C 138.570312 113.269531 131.375 108.546875 131.375 106.523438 C 131.375 99.34375 141.285156 102.605469 140.320312 98.238281 C 139.304688 93.308594 134.019531 93.382812 132.671875 88.867188 C 131.585938 85.117188 140.601562 86.992188 142.5625 86.992188 C 136.800781 83.65625 128.558594 82.925781 127.644531 88.226562 Z M 127.542969 88.304688 "/>
<path style=" stroke:none;fill-rule:evenodd;fill:rgb(22.745098%,28.235294%,29.411765%);fill-opacity:1;" d="M 12.132812 94.9375 C 9.332031 95.535156 7.492188 98.414062 7.984375 101.421875 L 16.316406 149.761719 C 16.875 152.75 19.550781 154.71875 22.355469 154.203125 Z M 12.132812 94.9375 "/>
<path style=" stroke:none;fill-rule:evenodd;fill:rgb(22.745098%,28.235294%,29.411765%);fill-opacity:1;" d="M 147.886719 94.9375 C 150.707031 95.507812 152.578125 98.394531 152.085938 101.421875 L 143.753906 149.820312 C 143.195312 152.804688 140.519531 154.777344 137.714844 154.261719 Z M 147.886719 94.9375 "/>
<path style=" stroke:none;fill-rule:evenodd;fill:rgb(16.470588%,22.352941%,23.921569%);fill-opacity:1;" d="M 8.542969 104.964844 C 3.589844 109.238281 1.085938 118.085938 2.644531 127.457031 C 4.203125 136.828125 9.648438 144.328125 15.652344 146.332031 Z M 8.542969 104.964844 "/>
<path style=" stroke:none;fill-rule:evenodd;fill:rgb(16.470588%,22.352941%,23.921569%);fill-opacity:1;" d="M 151.542969 104.964844 C 156.5 109.238281 159.003906 118.085938 157.375 127.457031 C 155.746094 136.828125 150.371094 144.328125 144.4375 146.332031 Z M 151.542969 104.964844 "/>
</g>
</svg>
